<?xml version="1.0" encoding="UTF-8"?>
<svg width="175px" height="139px" viewBox="0 0 175 139" version="1.1" xmlns="http://www.w3.org/2000/svg" xmlns:xlink="http://www.w3.org/1999/xlink">
    <!-- Generator: Sketch 55.2 (78181) - https://sketchapp.com -->
    <title>Group 2</title>
    <desc>Created with Sketch.</desc>
    <g id="Mobile" stroke="none" stroke-width="1" fill="none" fill-rule="evenodd">
        <g id="9.-Login-3" transform="translate(-101.000000, -110.000000)">
            <g id="Group" transform="translate(0.000000, 110.000000)">
                <g id="Group-2" transform="translate(101.000000, 0.000000)">
                    <g id="Group-51" transform="translate(0.000000, 79.000000)">
                        <g id="Group-50" transform="translate(0.906280, 0.347266)">
                            <path d="M173.954965,56.7789387 C173.954999,56.7827858 173.955016,56.7866657 173.955016,56.7905788 L173.955016,57.0446761 C173.955016,57.0479425 173.954999,57.0512089 173.954965,57.0544745 L173.954965,57.5023052 L173.065675,57.5023052 L173.065675,56.3332038 L173.954965,56.3332038 L173.954965,56.7789387 Z M6.30161135,55.8759813 C6.75898637,55.2661479 6.98767387,54.4530368 6.98767387,53.4366478 C6.98767387,52.8014048 6.88603498,52.2423909 6.70816692,51.7341964 C6.50488913,51.2260019 6.19997246,50.8194464 5.79341688,50.5145297 C5.38686131,50.209613 4.85325713,50.0571547 4.24342377,50.0571547 L1.77868062,50.0571547 L1.77868062,53.1063214 L2.4139237,53.1063214 C2.51556259,53.1063214 2.61720149,53.1317312 2.66802093,53.1825506 C2.71884038,53.2333701 2.76965983,53.3095992 2.76965983,53.4112381 C2.76965983,53.512877 2.7442501,53.5891062 2.66802093,53.6399256 C2.61720149,53.6907451 2.51556259,53.7161548 2.4139237,53.7161548 L1.77868062,53.7161548 L1.77868062,56.7653216 L4.24342377,56.7653216 C5.15817381,56.7907313 5.84423633,56.4858146 6.30161135,55.8759813 Z M6.22538218,49.930106 C6.73357664,50.2858422 7.11472249,50.7940366 7.36881972,51.40387 C7.62291695,52.0137033 7.74996557,52.6997659 7.74996557,53.4366478 C7.74996557,54.1989395 7.62291695,54.8850021 7.36881972,55.4948354 C7.11472249,56.1046688 6.73357664,56.5874535 6.22538218,56.9431896 C5.71718772,57.2989258 5.10735436,57.4767938 4.34506266,57.4767938 L1.39753477,57.4767938 C1.29589588,57.4767938 1.21966671,57.4513841 1.14343754,57.3751549 C1.06720837,57.2989258 1.04179865,57.2226966 1.04179865,57.1210577 L1.04179865,53.7161548 L0.508194464,53.7161548 C0.406555571,53.7161548 0.304916678,53.6907451 0.254097232,53.6145159 C0.203277785,53.5636965 0.152458339,53.4620576 0.152458339,53.3604187 C0.152458339,53.2587798 0.177868062,53.1825506 0.254097232,53.1317312 C0.330326401,53.0809117 0.406555571,53.055502 0.508194464,53.055502 L1.04179865,53.055502 L1.04179865,49.6760088 C1.04179865,49.5743699 1.06720837,49.4981408 1.14343754,49.4219116 C1.21966671,49.3456824 1.29589588,49.3202727 1.39753477,49.3202727 L4.34506266,49.3202727 C5.08194464,49.3710921 5.71718772,49.5489602 6.22538218,49.930106 Z M14.3565444,56.4603541 C14.8393292,56.1554374 15.1950653,55.7488818 15.4745722,55.2155317 C15.7286695,54.6816735 15.8811278,54.0972498 15.8811278,53.4111873 C15.8811278,52.7505345 15.7540792,52.1407011 15.4745722,51.607097 C15.220475,51.0734928 14.8393292,50.6669372 14.3565444,50.3620205 C13.8737597,50.0571038 13.3401555,49.9300552 12.7303221,49.9300552 C12.1204888,49.9300552 11.5868846,50.0825136 11.1040998,50.3620205 C10.6213151,50.6669372 10.265579,51.0734928 9.98607203,51.607097 C9.7319748,52.1407011 9.57951646,52.7251248 9.57951646,53.4111873 C9.57951646,54.0720942 9.70656507,54.6816735 9.98607203,55.2155317 C10.2401693,55.7488818 10.6213151,56.1554374 11.1040998,56.4603541 C11.5868846,56.7652708 12.1204888,56.8923194 12.7303221,56.8923194 C13.3401555,56.9177291 13.8737597,56.7652708 14.3565444,56.4603541 Z M16.0844056,51.2259511 C16.4401417,51.8611942 16.6180098,52.5980762 16.6180098,53.4111873 C16.6180098,54.1991428 16.4401417,54.910361 16.1098153,55.545604 C15.7794889,56.1808471 15.3221139,56.6636319 14.7376903,57.0447777 C14.1532666,57.4005138 13.4926138,57.5783819 12.7303221,57.5783819 C11.9680304,57.5783819 11.3073776,57.4005138 10.722954,57.0447777 C10.1385304,56.6890416 9.68115535,56.1808471 9.35082895,55.545604 C9.02050255,54.910361 8.84263449,54.1991428 8.84263449,53.4111873 C8.84263449,52.5980762 9.02050255,51.8866039 9.35082895,51.2513608 C9.68115535,50.6161178 10.1385304,50.1335871 10.722954,49.7775969 C11.3073776,49.4218608 11.9680304,49.2442468 12.7303221,49.2442468 C13.0606485,49.2442468 13.4163847,49.2948121 13.7467111,49.3712954 C14.0770375,49.3456316 14.3311347,49.2694024 14.483593,49.1423538 C14.6360514,49.0153052 14.7122805,48.7866177 14.7122805,48.4819551 C14.7122805,48.3549065 14.7376903,48.2784232 14.7885097,48.1767843 C14.8393292,48.1008093 14.9155583,48.0497357 15.0171972,48.0497357 C15.220475,48.0497357 15.3221139,48.1767843 15.3221139,48.4562913 C15.3221139,48.7360523 15.2712944,48.9901496 15.1442458,49.218583 C15.0171972,49.4472705 14.8647389,49.5997288 14.6360514,49.7267774 C15.2712944,50.1079233 15.7286695,50.590708 16.0844056,51.2259511 Z M24.4186932,49.4726802 C24.4695126,49.5234997 24.4949223,49.5997288 24.4949223,49.7013677 L24.4949223,57.121261 C24.4949223,57.2483096 24.4695126,57.3242847 24.3932834,57.4005138 C24.3170543,57.476743 24.2408251,57.5024068 24.1391862,57.5024068 C24.0883668,57.5024068 24.0375473,57.5024068 23.9867279,57.476743 C23.9359084,57.4513333 23.885089,57.4259236 23.8596792,57.4005138 L18.9047832,50.6669372 L18.9047832,57.1718263 C18.9047832,57.2483096 18.8793735,57.3242847 18.8031443,57.4005138 C18.7269152,57.4513333 18.650686,57.5024068 18.5744568,57.5024068 C18.4728179,57.5024068 18.3965888,57.476743 18.3457693,57.4005138 C18.2949499,57.3496944 18.2441304,57.2734652 18.2441304,57.1718263 L18.2441304,49.7267774 C18.2441304,49.6253926 18.2695401,49.5234997 18.3457693,49.4726802 C18.4219985,49.4218608 18.4982277,49.3712954 18.5744568,49.3712954 C18.7015054,49.3712954 18.8031443,49.4218608 18.8539638,49.498344 L23.8596792,56.2319207 L23.8596792,49.7013677 C23.8596792,49.5997288 23.885089,49.5234997 23.9613181,49.4726802 C24.0121376,49.4218608 24.0883668,49.3712954 24.1900056,49.3712954 C24.2916445,49.3712954 24.3678737,49.396451 24.4186932,49.4726802 Z M36.0309875,53.4873657 C36.1072166,53.5638489 36.1326264,53.6400781 36.1326264,53.7414629 L36.1326264,56.5365324 C36.1326264,56.663581 36.0818069,56.7652199 35.9547583,56.8414491 C35.5990222,57.0703907 35.2178763,57.2734144 34.785911,57.400463 C34.3539457,57.5275116 33.9219804,57.6037408 33.4900151,57.6037408 C32.7023137,57.6037408 31.9908415,57.4258727 31.3555984,57.0703907 C30.7203553,56.7144005 30.2121609,56.206206 29.8564247,55.570963 C29.5006886,54.9357199 29.3228205,54.2242476 29.3228205,53.4368003 C29.3228205,52.6488448 29.5006886,51.9373725 29.8564247,51.3021295 C30.2121609,50.6668864 30.7203553,50.1586919 31.3555984,49.8029558 C31.9908415,49.4474738 32.7023137,49.2693516 33.4900151,49.2693516 C33.8965707,49.2693516 34.3031263,49.3204251 34.6842721,49.4218099 C35.065418,49.5234488 35.4211541,49.6759072 35.7006611,49.8537752 C35.8023,49.9300044 35.8531194,50.0316433 35.8531194,50.1335363 C35.8531194,50.2349211 35.8277097,50.3111503 35.7514805,50.3876335 C35.6752513,50.4638627 35.5990222,50.4890183 35.522793,50.4890183 C35.4465638,50.4890183 35.3703347,50.4638627 35.3195152,50.4381989 C34.7350916,50.1335363 34.1252582,49.9556682 33.4646054,49.9556682 C32.8039526,49.9556682 32.219529,50.1078725 31.6859248,50.4127891 C31.1523206,50.7179599 30.745765,51.1242614 30.4662581,51.6581197 C30.1613414,52.1914698 30.0342928,52.7758934 30.0342928,53.4368003 C30.0342928,54.097199 30.1867511,54.6816226 30.4662581,55.2154809 C30.7711748,55.748831 31.1777303,56.1553866 31.6859248,56.4603033 C32.219529,56.7652199 32.8039526,56.9176783 33.4646054,56.9176783 C33.7949318,56.9176783 34.1252582,56.8671129 34.4555846,56.7906297 C34.785911,56.6892449 35.0908277,56.5621963 35.3449249,56.4094838 L35.3449249,54.1226087 L33.5154249,54.1226087 C33.413786,54.1226087 33.3375568,54.097199 33.2613276,54.0212239 C33.1850985,53.9449948 33.1596887,53.8685115 33.1596887,53.7671267 C33.1596887,53.6652337 33.1850985,53.5890045 33.2613276,53.5130295 C33.3375568,53.4368003 33.413786,53.4111365 33.5154249,53.4111365 L35.7260708,53.4111365 C35.8785291,53.3859809 35.9547583,53.4368003 36.0309875,53.4873657 Z M38.5210895,57.3752566 C38.4448603,57.4514857 38.3686312,57.4766414 38.2669923,57.4766414 C38.1653534,57.4766414 38.0637145,57.4514857 38.0128951,57.3752566 C37.9366659,57.2987733 37.9112562,57.2225441 37.9112562,57.1211593 L37.9112562,49.7266758 C37.9112562,49.625291 37.9366659,49.5236521 38.0128951,49.4725786 C38.0891242,49.3966035 38.1653534,49.3711938 38.2669923,49.3711938 C38.3686312,49.3711938 38.4448603,49.3966035 38.5210895,49.4725786 C38.5973187,49.5488077 38.6227284,49.625291 38.6227284,49.7266758 L38.6227284,57.1211593 C38.6481381,57.2225441 38.5973187,57.2987733 38.5210895,57.3752566 Z M43.4506775,46.6523026 C43.7810039,46.6523026 44.0351011,46.7285317 44.1875594,46.9063998 C44.3400178,47.0842679 44.4162469,47.2875457 44.4162469,47.4908234 C44.4162469,47.6178721 44.3908372,47.7195109 44.314608,47.8211498 C44.2383789,47.9227887 44.1621497,48.0498374 44.0096914,48.176886 C43.9080525,48.2782708 43.8826427,48.3801638 43.8826427,48.4818026 C43.8826427,48.532368 43.857233,48.5834415 43.8064136,48.6088513 C43.7555941,48.634261 43.7047747,48.6594166 43.6285455,48.6594166 C43.5777261,48.6594166 43.5269066,48.634261 43.4760872,48.6088513 C43.4252677,48.5580318 43.399858,48.532368 43.399858,48.4818026 C43.399858,48.3039346 43.4506775,48.1512221 43.5523163,48.0241735 C43.679365,47.8971249 43.7810039,47.7957401 43.8064136,47.7195109 C43.857233,47.6686915 43.8826427,47.5924623 43.8826427,47.4908234 C43.8826427,47.3889305 43.8318233,47.3129554 43.7555941,47.2367262 C43.679365,47.160497 43.5777261,47.1348332 43.4506775,47.1348332 C43.2728094,47.1348332 43.0949413,47.2113165 42.9170733,47.3383651 C42.8662538,47.3889305 42.7900247,47.440004 42.7137955,47.440004 C42.662976,47.440004 42.5867469,47.4145943 42.5359274,47.3383651 C42.485108,47.2875457 42.485108,47.2367262 42.485108,47.1859068 C42.485108,47.1096776 42.5105177,47.0588581 42.5867469,46.982629 C42.8408441,46.7793512 43.1203511,46.6523026 43.4506775,46.6523026 Z M41.8244552,54.4530876 L45.05149,54.4530876 L43.4252677,50.4891708 L41.8244552,54.4530876 Z M46.8809901,57.1716739 C46.8809901,57.2735669 46.8555804,57.349796 46.7793512,57.4257711 C46.703122,57.4768446 46.6268929,57.5276641 46.525254,57.5276641 C46.4490248,57.5276641 46.3727956,57.5022544 46.3219762,57.4514349 C46.2711567,57.4006155 46.2203373,57.349796 46.1949276,57.2735669 L45.330997,55.1645598 L41.5703579,55.1645598 L40.7064274,57.2735669 C40.6556079,57.4257711 40.5285593,57.5022544 40.4015107,57.5022544 C40.2998718,57.5022544 40.2236426,57.4768446 40.1474134,57.4257711 C40.096594,57.3752058 40.0711843,57.2987225 40.0457745,57.1973377 L40.0457745,57.1716739 L40.0457745,57.0702891 L43.0949413,49.5744207 C43.1457608,49.4217083 43.2728094,49.3457332 43.4506775,49.3457332 C43.5269066,49.3457332 43.6031358,49.371143 43.6539552,49.4217083 C43.7047747,49.4727818 43.7555941,49.5236013 43.7810039,49.5998305 L46.8301706,57.0446253 C46.8809901,57.0956988 46.8809901,57.1211085 46.8809901,57.1716739 Z M54.4783449,49.4726802 C54.5291643,49.5234997 54.5548281,49.5997288 54.5548281,49.7013677 L54.5548281,57.121261 C54.5548281,57.2483096 54.5291643,57.3242847 54.4529351,57.4005138 C54.3769601,57.476743 54.3007309,57.5024068 54.1988379,57.5024068 C54.1480185,57.5024068 54.097199,57.5024068 54.0466337,57.476743 C53.9958142,57.4513333 53.9447407,57.4259236 53.919585,57.4005138 L48.9644349,50.6669372 L48.9644349,57.1718263 C48.9644349,57.2483096 48.9390252,57.3242847 48.862796,57.4005138 C48.786821,57.4513333 48.7103377,57.5024068 48.6341085,57.5024068 C48.5327237,57.5024068 48.4562405,57.476743 48.4056751,57.4005138 C48.3546016,57.3496944 48.3037821,57.2734652 48.3037821,57.1718263 L48.3037821,49.7267774 C48.3037821,49.6253926 48.3291918,49.5234997 48.4056751,49.4726802 C48.4816502,49.4218608 48.5578794,49.3712954 48.6341085,49.3712954 C48.7611571,49.3712954 48.862796,49.4218608 48.9138696,49.498344 L53.919585,56.2319207 L53.919585,49.7013677 C53.919585,49.5997288 53.9447407,49.5234997 54.0209698,49.4726802 C54.0717893,49.4218608 54.1480185,49.3712954 54.2499114,49.3712954 C54.3512962,49.3712954 54.4277795,49.396451 54.4783449,49.4726802 Z M65.9891527,49.4726802 C66.0653819,49.5489094 66.0905375,49.6253926 66.0905375,49.7267774 L66.0905375,57.121261 C66.0905375,57.2226458 66.0397181,57.3242847 65.9634889,57.3753582 C65.8875138,57.4513333 65.8112847,57.476743 65.7093917,57.476743 C65.6080069,57.476743 65.5315236,57.4513333 65.4552944,57.3753582 C65.3793194,57.2988749 65.3539097,57.2226458 65.3539097,57.121261 L65.3539097,53.6652845 L60.6531109,53.6652845 L60.6531109,57.121261 C60.6531109,57.2226458 60.6022914,57.2988749 60.5260623,57.3753582 C60.449579,57.4513333 60.3733498,57.476743 60.271965,57.476743 C60.1703261,57.476743 60.0684331,57.4513333 60.0178678,57.3753582 C59.9413845,57.2988749 59.9162289,57.2226458 59.9162289,57.121261 L59.9162289,49.7267774 C59.9162289,49.6253926 59.9413845,49.5234997 60.0178678,49.4726802 C60.094097,49.396451 60.1703261,49.3712954 60.271965,49.3712954 C60.3733498,49.3712954 60.449579,49.396451 60.5260623,49.4726802 C60.6022914,49.5489094 60.627447,49.6253926 60.627447,49.7267774 L60.627447,53.0046317 L65.3282458,53.0046317 L65.3282458,49.7267774 C65.3282458,49.6253926 65.3539097,49.5489094 65.4301388,49.4726802 C65.506368,49.396451 65.5823431,49.3712954 65.6842361,49.3712954 C65.8364403,49.3712954 65.9126695,49.396451 65.9891527,49.4726802 Z M73.2562319,56.4603541 C73.7390167,56.1554374 74.0947528,55.7488818 74.3742597,55.2155317 C74.628357,54.6816735 74.7808153,54.0972498 74.7808153,53.4111873 C74.7808153,52.7505345 74.6537667,52.1407011 74.3742597,51.607097 C74.1201625,51.0734928 73.7390167,50.6669372 73.2562319,50.3620205 C72.7734472,50.0571038 72.239843,49.9300552 71.6300096,49.9300552 C71.0201763,49.9300552 70.4865721,50.0825136 70.0037874,50.3620205 C69.5210026,50.6669372 69.1652665,51.0734928 68.8857595,51.607097 C68.6316623,52.1407011 68.479204,52.7251248 68.479204,53.4111873 C68.479204,54.0720942 68.6062526,54.6816735 68.8857595,55.2155317 C69.1398568,55.7488818 69.5210026,56.1554374 70.0037874,56.4603541 C70.4865721,56.7652708 71.0201763,56.8923194 71.6300096,56.8923194 C72.2144333,56.9177291 72.7734472,56.7652708 73.2562319,56.4603541 Z M74.9840931,51.2259511 C75.3398292,51.8611942 75.5176973,52.5980762 75.5176973,53.4111873 C75.5176973,54.1991428 75.3398292,54.910361 75.0095028,55.545604 C74.6791764,56.1808471 74.2218014,56.6636319 73.6373778,57.0447777 C73.0529541,57.4005138 72.3923013,57.5783819 71.6300096,57.5783819 C70.8677179,57.5783819 70.2070651,57.4005138 69.6226415,57.0447777 C69.0382179,56.6890416 68.5808429,56.1808471 68.2505165,55.545604 C67.9201901,54.910361 67.742322,54.1991428 67.742322,53.4111873 C67.742322,52.5980762 67.9201901,51.8866039 68.2505165,51.2513608 C68.5808429,50.6161178 69.0379638,50.1335871 69.6226415,49.7775969 C70.2070651,49.4218608 70.8677179,49.2442468 71.6300096,49.2442468 C71.960336,49.2442468 72.3160722,49.2948121 72.6463986,49.3712954 C72.976725,49.3456316 73.2308222,49.2694024 73.3832805,49.1423538 C73.5357389,49.0153052 73.611968,48.7866177 73.611968,48.4819551 C73.611968,48.3549065 73.6373778,48.2784232 73.6881972,48.1767843 C73.7390167,48.1008093 73.8152458,48.0497357 73.9168847,48.0497357 C74.1201625,48.0497357 74.2218014,48.1767843 74.2218014,48.4562913 C74.2218014,48.7360523 74.170982,48.9901496 74.0439333,49.218583 C73.9168847,49.4472705 73.7644264,49.5997288 73.5357389,49.7267774 C74.1455722,50.1079233 74.628357,50.590708 74.9840931,51.2259511 Z M83.3183807,49.4726802 C83.3692001,49.5234997 83.3948639,49.5997288 83.3948639,49.7013677 L83.3948639,57.121261 C83.3948639,57.2483096 83.3692001,57.3242847 83.2929709,57.4005138 C83.2169959,57.476743 83.1407667,57.5024068 83.0388737,57.5024068 C82.9880543,57.5024068 82.9372348,57.5024068 82.8866695,57.476743 C82.83585,57.4513333 82.7847765,57.4259236 82.7596209,57.4005138 L77.8047248,50.6669372 L77.8047248,57.1718263 C77.8047248,57.2483096 77.779061,57.3242847 77.7028318,57.4005138 C77.6268568,57.4513333 77.5506276,57.5024068 77.4741443,57.5024068 C77.3727595,57.5024068 77.2965304,57.476743 77.2457109,57.4005138 C77.1946374,57.3496944 77.1438179,57.2734652 77.1438179,57.1718263 L77.1438179,49.7267774 C77.1438179,49.6253926 77.1694818,49.5234997 77.2457109,49.4726802 C77.321686,49.4218608 77.3979152,49.3712954 77.4741443,49.3712954 C77.6011929,49.3712954 77.7028318,49.4218608 77.7539054,49.498344 L82.7596209,56.2319207 L82.7596209,49.7013677 C82.7596209,49.5997288 82.7847765,49.5234997 82.8610056,49.4726802 C82.9118251,49.4218608 82.9880543,49.3712954 83.0899473,49.3712954 C83.191332,49.3712954 83.2678153,49.396451 83.3183807,49.4726802 Z M85.1988018,57.3752566 C85.1225726,57.2987733 85.0971629,57.1717247 85.0971629,57.0446761 L85.0971629,56.7905788 C85.0971629,56.6635302 85.1225726,56.5364816 85.1988018,56.4602524 C85.275031,56.3842774 85.3766699,56.3332038 85.5037185,56.3332038 L85.5799477,56.3332038 C85.7069963,56.3332038 85.8086352,56.3842774 85.8848643,56.4602524 C85.9610935,56.5364816 85.9865032,56.6383746 85.9865032,56.7905788 L85.9865032,57.0446761 C85.9865032,57.1717247 85.9610935,57.2987733 85.8848643,57.3752566 C85.8086352,57.4514857 85.7069963,57.5023052 85.5799477,57.5023052 L85.5037185,57.5023052 C85.3766699,57.4766414 85.275031,57.4514857 85.1988018,57.3752566 Z M96.9125826,49.4726802 C96.9890658,49.5489094 97.0142215,49.6253926 97.0142215,49.7267774 L97.0142215,57.121261 C97.0142215,57.2226458 96.963402,57.3242847 96.8871728,57.3753582 C96.8111978,57.4513333 96.7349686,57.476743 96.6330756,57.476743 C96.5314367,57.476743 96.4552075,57.4513333 96.3789784,57.3753582 C96.3030033,57.2988749 96.2773395,57.2226458 96.2773395,57.121261 L96.2773395,53.6652845 L91.5765407,53.6652845 L91.5765407,57.121261 C91.5765407,57.2226458 91.5259753,57.2988749 91.4494921,57.3753582 C91.3732629,57.4513333 91.2970337,57.476743 91.1953948,57.476743 C91.0940101,57.476743 90.9921171,57.4513333 90.9412976,57.3753582 C90.8650684,57.2988749 90.8399128,57.2226458 90.8399128,57.121261 L90.8399128,49.7267774 C90.8399128,49.6253926 90.8650684,49.5234997 90.9412976,49.4726802 C91.0177809,49.396451 91.0940101,49.3712954 91.1953948,49.3712954 C91.2970337,49.3712954 91.3732629,49.396451 91.4494921,49.4726802 C91.5259753,49.5489094 91.551131,49.6253926 91.551131,49.7267774 L91.551131,53.0046317 L96.2519298,53.0046317 L96.2519298,49.7267774 C96.2519298,49.6253926 96.2773395,49.5489094 96.3538228,49.4726802 C96.4300519,49.396451 96.506027,49.3712954 96.60792,49.3712954 C96.7601242,49.3712954 96.8620172,49.396451 96.9125826,49.4726802 Z M99.8093926,57.3752566 C99.7331635,57.4514857 99.6569343,57.4766414 99.5552954,57.4766414 C99.4536565,57.4766414 99.3520176,57.4514857 99.3011982,57.3752566 C99.224969,57.2987733 99.1995593,57.2225441 99.1995593,57.1211593 L99.1995593,49.7266758 C99.1995593,49.625291 99.224969,49.5236521 99.3011982,49.4725786 C99.3774274,49.3966035 99.4536565,49.3711938 99.5552954,49.3711938 C99.6569343,49.3711938 99.7331635,49.3966035 99.8093926,49.4725786 C99.8856218,49.5488077 99.9110315,49.625291 99.9110315,49.7266758 L99.9110315,57.1211593 C99.9110315,57.2225441 99.8856218,57.2987733 99.8093926,57.3752566 Z M104.256094,58.9760183 C104.179865,58.8997891 104.129046,58.7727405 104.129046,58.6456919 L104.129046,58.5186433 C104.129046,58.3915947 104.179865,58.2645461 104.256094,58.1880628 C104.357733,58.1120877 104.459372,58.0610142 104.61183,58.0610142 C104.916747,58.0610142 105.094615,58.2137266 105.094615,58.5186433 L105.094615,58.6456919 C105.094615,58.7981503 105.043796,58.8997891 104.967566,58.9760183 C104.891337,59.0522475 104.764289,59.1030669 104.61183,59.1030669 C104.459372,59.1030669 104.332323,59.0774031 104.256094,58.9760183 Z M106.111004,48.4818026 C106.111004,48.532368 106.085594,48.5580318 106.060185,48.6088513 C106.009365,48.6594166 105.983955,48.6594166 105.933136,48.6594166 C105.856907,48.6594166 105.755268,48.6088513 105.628219,48.5072124 L104.66265,47.8211498 L103.773309,48.532368 C103.646261,48.634261 103.519212,48.6850804 103.468393,48.6850804 C103.417573,48.6850804 103.366754,48.6594166 103.341344,48.634261 C103.290525,48.6088513 103.290525,48.5580318 103.290525,48.5072124 C103.290525,48.4563929 103.315934,48.3801638 103.392164,48.3039346 L104.281504,47.3637748 C104.332323,47.2875457 104.408553,47.2367262 104.459372,47.2113165 C104.510191,47.1859068 104.586421,47.160497 104.66265,47.160497 L104.789698,47.160497 C104.865928,47.160497 104.942157,47.1859068 104.992976,47.2113165 C105.043796,47.2367262 105.120025,47.2875457 105.170844,47.3637748 L106.060185,48.3039346 C106.060185,48.354754 106.111004,48.4053194 106.111004,48.4818026 Z M106.949525,56.9175766 C107.025754,56.9940599 107.051164,57.0702891 107.051164,57.1716739 C107.051164,57.2735669 107.025754,57.349796 106.949525,57.4257711 C106.873296,57.4768446 106.797067,57.5276641 106.695428,57.5276641 L102.452004,57.5276641 C102.350365,57.5276641 102.274136,57.5022544 102.197907,57.4257711 C102.121677,57.349796 102.096268,57.2735669 102.096268,57.1716739 L102.096268,49.7522888 C102.096268,49.6506499 102.121677,49.5744207 102.197907,49.4981916 C102.274136,49.4217083 102.350365,49.3965527 102.452004,49.3965527 L106.695428,49.3965527 C106.797067,49.3965527 106.873296,49.4217083 106.949525,49.4981916 C107.025754,49.5744207 107.051164,49.6506499 107.051164,49.7522888 C107.051164,49.8539277 107.025754,49.9299028 106.949525,50.006386 C106.873296,50.0569514 106.797067,50.1080249 106.695428,50.1080249 L102.83315,50.1080249 L102.83315,52.9539139 L106.161823,52.9539139 C106.263462,52.9539139 106.339692,52.9790695 106.415921,53.0555528 C106.49215,53.131782 106.51756,53.2080112 106.51756,53.30965 C106.51756,53.4112889 106.49215,53.487264 106.415921,53.5637473 C106.339692,53.6143126 106.263462,53.6653862 106.161823,53.6653862 L102.80774,53.6653862 L102.80774,56.8161918 L106.670018,56.8161918 C106.797067,56.790528 106.873296,56.8416016 106.949525,56.9175766 Z M114.674081,49.4726802 C114.75031,49.5489094 114.77572,49.6253926 114.77572,49.7267774 L114.77572,54.5292151 C114.77572,55.0884831 114.648671,55.6218332 114.369164,56.0792082 C114.089657,56.561993 113.733921,56.9177291 113.276546,57.1972361 C112.819171,57.476743 112.310976,57.6037916 111.751963,57.6037916 C111.192949,57.6037916 110.684754,57.476743 110.201969,57.1972361 C109.744594,56.9177291 109.363449,56.561993 109.109351,56.0792082 C108.829844,55.5966776 108.702796,55.0884831 108.702796,54.5292151 L108.702796,49.7267774 C108.702796,49.6253926 108.728205,49.5489094 108.804435,49.4726802 C108.880664,49.396451 108.956893,49.3712954 109.083942,49.3712954 C109.18558,49.3712954 109.26181,49.396451 109.338039,49.4726802 C109.414268,49.5489094 109.439678,49.6253926 109.439678,49.7267774 L109.439678,54.5292151 C109.439678,54.9614345 109.541317,55.367736 109.744849,55.7237262 C109.947872,56.0792082 110.227379,56.3841249 110.608525,56.5874027 C110.964261,56.7906805 111.345407,56.9177291 111.777626,56.9177291 C112.209338,56.9177291 112.590483,56.8160902 112.94622,56.5874027 C113.30221,56.3841249 113.581463,56.0792082 113.810404,55.7237262 C114.013428,55.367736 114.140477,54.9614345 114.140477,54.5292151 L114.140477,49.7267774 C114.140477,49.6253926 114.165886,49.5489094 114.242115,49.4726802 C114.292935,49.396451 114.394574,49.3712954 114.496213,49.3712954 C114.521622,49.3712954 114.597852,49.396451 114.674081,49.4726802 Z M120.721544,55.2407382 C120.975641,55.7743424 121.356787,56.1808979 121.839572,56.4858146 C122.322357,56.7907313 122.855961,56.9177799 123.465794,56.9177799 C124.075627,56.9177799 124.609232,56.7653216 125.092016,56.4858146 C125.575055,56.1808979 125.930537,55.7743424 126.210298,55.2407382 C126.464396,54.707134 126.6166,54.1227104 126.6166,53.4366478 C126.6166,52.775995 126.489551,52.1661617 126.210298,51.6325575 C125.956201,51.0989533 125.575055,50.6923977 125.092016,50.3874811 C124.609232,50.0825644 124.075627,49.9555158 123.465794,49.9555158 C122.855961,49.9555158 122.322357,50.1079741 121.839572,50.3874811 C121.356787,50.6923977 121.001305,51.0989533 120.721544,51.6325575 C120.467447,52.1661617 120.314988,52.7505853 120.314988,53.4366478 C120.314988,54.0973006 120.442037,54.707134 120.721544,55.2407382 Z M128.116028,58.2390855 C128.166593,58.289905 128.217412,58.3661341 128.217412,58.467773 C128.217412,58.6456411 128.116028,58.7980994 127.887086,58.9759675 C127.658398,59.1284258 127.378891,59.2808842 127.048565,59.3825231 C126.718493,59.484162 126.413322,59.5349814 126.108405,59.5349814 C125.67644,59.5349814 125.295294,59.484162 124.990377,59.3825231 C124.685715,59.2808842 124.355134,59.1538356 123.999398,58.9759675 C123.719891,58.8235092 123.465794,58.7218703 123.262516,58.6456411 C123.059239,58.5694119 122.830551,58.5440022 122.551044,58.5440022 C122.449405,58.5440022 122.347766,58.5440022 122.271791,58.5694119 C122.195308,58.5948216 122.093669,58.6202314 121.96662,58.6964605 C121.788752,58.7726897 121.661704,58.8235092 121.585475,58.8235092 C121.483836,58.8235092 121.407607,58.7980994 121.356787,58.7218703 C121.280558,58.6456411 121.255402,58.5694119 121.255402,58.467773 C121.255402,58.3153147 121.331377,58.2136758 121.458426,58.1628564 L122.983009,57.6292522 C122.322357,57.553023 121.712523,57.3497452 121.204329,56.9685994 C120.696134,56.5874535 120.289579,56.1046688 119.984916,55.4948354 C119.705155,54.8850021 119.552697,54.2243493 119.552697,53.4874673 C119.552697,52.6743561 119.730819,51.9628839 120.060891,51.3276408 C120.391218,50.6923977 120.848593,50.209613 121.433016,49.8538769 C122.017694,49.4981408 122.678093,49.3202727 123.440384,49.3202727 C124.17752,49.3202727 124.863329,49.4981408 125.448007,49.8538769 C126.032176,50.209613 126.489551,50.6923977 126.819878,51.3276408 C127.150204,51.9628839 127.328072,52.6743561 127.328072,53.4874673 C127.328072,54.1735298 127.201023,54.8087729 126.946926,55.3677868 C126.692829,55.9522104 126.337347,56.4095855 125.905128,56.7907313 C125.448007,57.1718772 124.939812,57.4259744 124.329725,57.553023 L123.110058,57.9595786 C123.338745,57.9849883 123.542277,58.0358077 123.719891,58.1120369 C123.897759,58.1882661 124.126447,58.289905 124.405954,58.4169536 C124.710871,58.5694119 125.015787,58.6964605 125.244475,58.7726897 C125.498572,58.8489189 125.778079,58.8997383 126.08325,58.8997383 C126.337347,58.8997383 126.56578,58.8743286 126.769058,58.7980994 C126.946926,58.7218703 127.150204,58.6456411 127.328072,58.5440022 C127.404301,58.4931828 127.480784,58.4423633 127.55676,58.3661341 C127.607833,58.3153147 127.658653,58.289905 127.734882,58.2390855 C127.785701,58.2136758 127.836266,58.1882661 127.91275,58.1882661 C127.988979,58.1374466 128.064954,58.1628564 128.116028,58.2390855 Z M135.078038,49.4726802 C135.154267,49.5489094 135.179676,49.6253926 135.179676,49.7267774 L135.179676,54.5292151 C135.179676,55.0884831 135.052628,55.6218332 134.773121,56.0792082 C134.493614,56.561993 134.137878,56.9177291 133.680503,57.1972361 C133.223128,57.476743 132.714933,57.6037916 132.155919,57.6037916 C131.596906,57.6037916 131.088711,57.476743 130.605926,57.1972361 C130.148805,56.9177291 129.76766,56.561993 129.513562,56.0792082 C129.233801,55.5966776 129.106753,55.0884831 129.106753,54.5292151 L129.106753,49.7267774 C129.106753,49.6253926 129.132416,49.5489094 129.208392,49.4726802 C129.284621,49.396451 129.36085,49.3712954 129.487898,49.3712954 C129.589537,49.3712954 129.665767,49.396451 129.741996,49.4726802 C129.818225,49.5489094 129.843635,49.6253926 129.843635,49.7267774 L129.843635,54.5292151 C129.843635,54.9614345 129.945528,55.367736 130.148805,55.7237262 C130.351829,56.0792082 130.631336,56.3841249 131.012482,56.5874027 C131.368218,56.7906805 131.749364,56.9177291 132.181583,56.9177291 C132.613549,56.9177291 132.994694,56.8160902 133.350176,56.5874027 C133.706167,56.3841249 133.98542,56.0792082 134.214361,55.7237262 C134.417385,55.367736 134.544433,54.9614345 134.544433,54.5292151 L134.544433,49.7267774 C134.544433,49.6253926 134.569843,49.5489094 134.646326,49.4726802 C134.696892,49.396451 134.798531,49.3712954 134.900424,49.3712954 C134.925579,49.3712954 135.001808,49.396451 135.078038,49.4726802 Z M139.855015,46.6523026 C140.185595,46.6523026 140.439692,46.7285317 140.591897,46.9063998 C140.744355,47.0842679 140.820838,47.2875457 140.820838,47.4908234 C140.820838,47.6178721 140.795174,47.7195109 140.718945,47.8211498 C140.64297,47.9227887 140.566741,48.0498374 140.414029,48.176886 C140.312644,48.2782708 140.28698,48.3801638 140.28698,48.4818026 C140.28698,48.532368 140.261824,48.5834415 140.210751,48.6088513 C140.159931,48.634261 140.109112,48.6594166 140.032883,48.6594166 C139.982063,48.6594166 139.931498,48.634261 139.880679,48.6088513 C139.829605,48.5580318 139.804449,48.532368 139.804449,48.4818026 C139.804449,48.3039346 139.855015,48.1512221 139.956654,48.0241735 C140.083702,47.8971249 140.185595,47.7957401 140.210751,47.7195109 C140.261824,47.6686915 140.28698,47.5924623 140.28698,47.4908234 C140.28698,47.3889305 140.236161,47.3129554 140.159931,47.2367262 C140.083702,47.160497 139.982063,47.1348332 139.855015,47.1348332 C139.677401,47.1348332 139.499533,47.2113165 139.321411,47.3383651 C139.270591,47.3889305 139.194362,47.440004 139.118387,47.440004 C139.067313,47.440004 138.991338,47.4145943 138.940265,47.3383651 C138.889445,47.2875457 138.889445,47.2367262 138.889445,47.1859068 C138.889445,47.1096776 138.915109,47.0588581 138.991338,46.982629 C139.245435,46.7793512 139.550352,46.6523026 139.855015,46.6523026 Z M138.254202,54.4530876 L141.481237,54.4530876 L139.855015,50.4891708 L138.254202,54.4530876 Z M143.310991,57.1716739 C143.310991,57.2735669 143.285327,57.349796 143.209098,57.4257711 C143.132869,57.4768446 143.056894,57.5276641 142.955001,57.5276641 C142.878772,57.5276641 142.802797,57.5022544 142.751723,57.4514349 C142.700904,57.4006155 142.650084,57.349796 142.624675,57.2735669 L141.760744,55.1645598 L138.000105,55.1645598 L137.136428,57.2735669 C137.085609,57.4257711 136.95856,57.5022544 136.831512,57.5022544 C136.729619,57.5022544 136.65339,57.4768446 136.577415,57.4257711 C136.526341,57.3752058 136.501185,57.2987225 136.475522,57.1973377 L136.475522,57.1716739 L136.475522,57.0702891 L139.524688,49.5744207 C139.575508,49.4217083 139.702556,49.3457332 139.880679,49.3457332 C139.956654,49.3457332 140.032883,49.371143 140.083702,49.4217083 C140.134776,49.4727818 140.185595,49.5236013 140.210751,49.5998305 L143.259918,57.0446253 C143.285327,57.0956988 143.310991,57.1211085 143.310991,57.1716739 Z M153.957411,49.4726802 C154.033894,49.5489094 154.05905,49.6253926 154.05905,49.7267774 L154.05905,57.121261 C154.05905,57.2226458 154.008231,57.3242847 153.932001,57.3753582 C153.856026,57.4513333 153.779797,57.476743 153.677904,57.476743 C153.576265,57.476743 153.500036,57.4513333 153.423807,57.3753582 C153.347832,57.2988749 153.322168,57.2226458 153.322168,57.121261 L153.322168,53.6652845 L148.621369,53.6652845 L148.621369,57.121261 C148.621369,57.2226458 148.570804,57.2988749 148.494321,57.3753582 C148.418091,57.4513333 148.341862,57.476743 148.240223,57.476743 C148.138839,57.476743 148.036946,57.4513333 147.986126,57.3753582 C147.909897,57.2988749 147.884741,57.2226458 147.884741,57.121261 L147.884741,49.7267774 C147.884741,49.6253926 147.909897,49.5234997 147.986126,49.4726802 C148.062609,49.396451 148.138839,49.3712954 148.240223,49.3712954 C148.341862,49.3712954 148.418091,49.396451 148.494321,49.4726802 C148.570804,49.5489094 148.59596,49.6253926 148.59596,49.7267774 L148.59596,53.0046317 L153.296758,53.0046317 L153.296758,49.7267774 C153.296758,49.6253926 153.322168,49.5489094 153.398651,49.4726802 C153.47488,49.396451 153.550856,49.3712954 153.652749,49.3712954 C153.804953,49.3712954 153.906846,49.396451 153.957411,49.4726802 Z M161.224744,56.4603541 C161.707275,56.1554374 162.063265,55.7488818 162.342518,55.2155317 C162.596615,54.6816735 162.749328,54.0972498 162.749328,53.4111873 C162.749328,52.7505345 162.622279,52.1407011 162.342518,51.607097 C162.088421,51.0734928 161.707275,50.6669372 161.224744,50.3620205 C160.74196,50.0571038 160.208355,49.9300552 159.598522,49.9300552 C158.988689,49.9300552 158.455085,50.0825136 157.9723,50.3620205 C157.489515,50.6669372 157.133525,51.0734928 156.854272,51.607097 C156.600175,52.1407011 156.447716,52.7251248 156.447716,53.4111873 C156.447716,54.0720942 156.574765,54.6816735 156.854272,55.2155317 C157.108369,55.7488818 157.489515,56.1554374 157.9723,56.4603541 C158.455085,56.7652708 158.988689,56.8923194 159.598522,56.8923194 C160.208355,56.9177291 160.74196,56.7652708 161.224744,56.4603541 Z M162.952606,51.2259511 C163.308342,51.8611942 163.485956,52.5980762 163.485956,53.4111873 C163.485956,54.1991428 163.308342,54.910361 162.977761,55.545604 C162.647689,56.1808471 162.190314,56.6636319 161.60589,57.0447777 C161.021467,57.4005138 160.360814,57.5783819 159.598522,57.5783819 C158.83623,57.5783819 158.175578,57.4005138 157.591154,57.0447777 C157.006476,56.6890416 156.549355,56.1808471 156.219029,55.545604 C155.888703,54.910361 155.710834,54.1991428 155.710834,53.4111873 C155.710834,52.5980762 155.888703,51.8866039 156.219029,51.2513608 C156.549355,50.6161178 157.006476,50.1335871 157.591154,49.7775969 C158.175578,49.4218608 158.83623,49.2442468 159.598522,49.2442468 C159.928594,49.2442468 160.284585,49.2948121 160.614911,49.3712954 C160.944983,49.3456316 161.199081,49.2694024 161.351793,49.1423538 C161.504251,49.0153052 161.580226,48.7866177 161.580226,48.4819551 C161.580226,48.3549065 161.60589,48.2784232 161.65671,48.1767843 C161.707275,48.1008093 161.783758,48.0497357 161.885397,48.0497357 C162.088421,48.0497357 162.190314,48.1767843 162.190314,48.4562913 C162.190314,48.7360523 162.139494,48.9901496 162.012446,49.218583 C161.885397,49.4472705 161.732939,49.5997288 161.504251,49.7267774 C162.139494,50.1079233 162.596615,50.590708 162.952606,51.2259511 Z M171.286893,49.4726802 C171.337713,49.5234997 171.363122,49.5997288 171.363122,49.7013677 L171.363122,57.121261 C171.363122,57.2483096 171.337713,57.3242847 171.261483,57.4005138 C171.185508,57.476743 171.109025,57.5024068 171.007386,57.5024068 C170.956567,57.5024068 170.905747,57.5024068 170.854928,57.476743 C170.804362,57.4513333 170.753289,57.4259236 170.727879,57.4005138 L165.772983,50.6669372 L165.772983,57.1718263 C165.772983,57.2483096 165.747573,57.3242847 165.671344,57.4005138 C165.595369,57.4513333 165.518886,57.5024068 165.442657,57.5024068 C165.341272,57.5024068 165.264789,57.476743 165.214223,57.4005138 C165.16315,57.3496944 165.11233,57.2734652 165.11233,57.1718263 L165.11233,49.7267774 C165.11233,49.6253926 165.13774,49.5234997 165.214223,49.4726802 C165.290198,49.4218608 165.366428,49.3712954 165.442657,49.3712954 C165.569705,49.3712954 165.671344,49.4218608 165.722418,49.498344 L170.727879,56.2319207 L170.727879,49.7013677 C170.727879,49.5997288 170.753289,49.5234997 170.829518,49.4726802 C170.880338,49.4218608 170.956567,49.3712954 171.05846,49.3712954 C171.159845,49.3712954 171.236074,49.396451 171.286893,49.4726802 Z" id="Combined-Shape" stroke="#606060" stroke-width="0.2" fill="#606060"></path>
                            <g id="Group-47" transform="translate(173.040215, 56.155488)"></g>
                            <path d="M31.3810589,2.84583818 L28.7892672,3.22698402 L30.6695867,5.05648409 L30.2376214,7.64827586 L32.5753159,6.42860914 L34.9130105,7.64827586 L34.4810452,5.05648409 L36.3613647,3.22698402 L33.7695729,2.84583818 L32.6007257,0.482733921 L31.3810589,2.84583818 Z M173.395748,33.794881 C173.395748,34.4301241 173.116495,35.0148018 172.633456,35.4211033 C172.201745,35.8276589 171.642731,36.0563464 171.058307,36.0817561 C170.397654,36.1071658 169.762411,35.8276589 169.355856,35.2940547 L159.75098,25.1047557 L156.828862,27.7219572 L156.828862,33.7694713 C156.854272,34.3795587 156.600175,34.989138 156.168209,35.446513 C155.73599,35.9041421 155.151821,36.1325755 154.541987,36.1325755 C153.906744,36.1582394 153.296911,35.9041421 152.864945,35.446513 C152.432726,35.0148018 152.204293,34.4047144 152.204293,33.7694713 L152.204293,2.38846316 C152.178629,1.7786298 152.432726,1.16879645 152.864945,0.71142143 C153.296911,0.254046412 153.906744,-5.08194464e-05 154.541987,0.0253589037 C155.151821,-5.08194464e-05 155.761654,0.254046412 156.168209,0.71142143 C156.600175,1.14338672 156.828862,1.75322008 156.828862,2.38846316 L156.828862,22.1826375 L168.771432,11.2310468 C169.228807,10.7736718 169.838386,10.5195746 170.47363,10.4941649 C171.058307,10.5195746 171.591911,10.7736718 171.973057,11.2056371 C172.379359,11.586783 172.633456,12.1203871 172.65912,12.7048108 C172.65912,13.3654636 172.354203,13.9498872 171.744116,14.4580817 L163.308342,21.95395 L172.65912,32.0926837 C173.116495,32.5498046 173.395748,33.1596379 173.395748,33.794881 L173.395748,33.794881 Z M146.58849,10.6466232 C147.198577,11.0785885 147.503494,11.6376024 147.503494,12.2728455 C147.503494,13.0605469 147.300216,13.6449705 146.893661,14.0515261 C146.512515,14.4580817 145.953247,14.6613595 145.394487,14.6613595 C144.936858,14.6359497 144.505147,14.5343108 144.073181,14.3564428 C143.564987,14.153165 143.005973,14.0515261 142.472369,14.0261164 C141.40516,14.0515261 140.363108,14.4072622 139.524841,15.067915 C138.533862,15.8302067 137.72075,16.7957762 137.186892,17.9392137 C136.577313,19.2096999 136.272396,20.6072347 136.272396,22.0301792 L136.272396,33.7694713 C136.297552,34.3795587 136.043455,34.989138 135.611743,35.446513 C135.179778,35.9041421 134.569945,36.1582394 133.934702,36.1325755 C133.299459,36.1582394 132.715035,35.9292978 132.25766,35.4719227 C131.825695,35.0148018 131.596753,34.4047144 131.622417,33.794881 L131.622417,12.9334983 C131.596753,12.3236649 131.85085,11.7138316 132.28307,11.2564565 C132.715035,10.7990815 133.299459,10.570394 133.909292,10.570394 C134.544535,10.5449843 135.154114,10.7990815 135.611743,11.2564565 C136.043455,11.6884218 136.272396,12.2982552 136.272396,12.9334983 L136.272396,15.4236511 C136.958459,13.8482483 138.076232,12.5269427 139.499431,11.5613732 C140.922376,10.570394 142.624827,10.0367898 144.378098,10.0367898 C145.190955,9.98597039 145.953247,10.2146579 146.58849,10.6466232 L146.58849,10.6466232 Z M120.594597,18.650686 C119.90828,17.3293804 118.891891,16.2113526 117.621405,15.4236511 C115.055277,13.8990678 111.853652,13.8990678 109.28727,15.4236511 C108.016784,16.2113526 107.000395,17.3039707 106.314079,18.650686 C105.577451,20.0990402 105.196305,21.7252625 105.221715,23.3514848 C105.196305,24.9522973 105.577451,26.5531099 106.314079,27.9760544 C107.000395,29.2976141 108.016784,30.3899781 109.28727,31.1776795 C111.853652,32.7022629 115.055277,32.7022629 117.621405,31.1776795 C118.891891,30.3899781 119.90828,29.2976141 120.594597,27.9760544 C121.331479,26.5531099 121.712625,24.9522973 121.686961,23.3514848 C121.712625,21.7252625 121.331479,20.0990402 120.594597,18.650686 L120.594597,18.650686 Z M124.609079,30.1869544 C123.516715,32.1686587 121.890493,33.794881 119.933944,34.9129088 C115.893798,37.1997839 110.964312,37.1997839 106.924166,34.9129088 C104.967617,33.794881 103.366805,32.143249 102.274187,30.1869544 C101.130749,28.103103 100.520916,25.7399988 100.571735,23.3514848 C100.546325,20.9629708 101.130749,18.5744568 102.274187,16.4654498 C103.366805,14.4834914 104.967617,12.8318594 106.924166,11.6884218 C110.964312,9.40154676 115.893798,9.40154676 119.933944,11.6884218 C121.890493,12.8064497 123.516715,14.4580817 124.583924,16.4654498 C125.727361,18.5744568 126.311785,20.9375611 126.286375,23.3514848 C126.362604,25.7399988 125.752517,28.103103 124.609079,30.1869544 L124.609079,30.1869544 Z M96.4807697,11.0023593 C96.9124809,11.4597343 97.1665782,12.0695677 97.1414225,12.679401 C97.1160128,12.9843177 97.0651934,13.3146441 96.9381447,13.5941511 L89.4676861,34.6588116 C89.289564,35.1418504 88.9594917,35.5735616 88.5021167,35.8276589 C88.0701514,36.0817561 87.5365472,36.183395 87.0283527,36.1325755 C86.1390124,36.0563464 85.4781055,35.5735616 85.0209846,34.6588116 L79.9390399,21.3949361 L75.2636509,34.6588116 C74.9330704,35.4973325 74.1456231,36.0563464 73.2562827,36.1325755 C72.7480883,36.183395 72.2650494,36.0817561 71.8333382,35.8276589 C71.3757091,35.5735616 71.0456368,35.1670061 70.8675147,34.6842213 L63.321081,13.6195608 C63.2194421,13.3146441 63.1686226,13.0097274 63.1686226,12.7048108 C63.1432129,12.0949774 63.3716463,11.4851441 63.8038657,11.027769 C64.235831,10.570394 64.8456644,10.3162968 65.4809075,10.3417065 C66.5989353,10.3417065 67.3101534,10.8244913 67.6153242,11.8154705 L73.408487,28.2555614 L78.007901,16.1097137 C78.3128177,15.1949636 79.202158,14.5851303 80.1420636,14.6359497 C81.1078872,14.6359497 81.7936956,15.1187345 82.1496859,16.1097137 L86.8756403,28.0522836 L92.592828,11.8154705 C92.9488182,10.849901 93.6857002,10.3417065 94.8291377,10.3417065 C95.4643808,10.3417065 96.0488044,10.570394 96.4807697,11.0023593 L96.4807697,11.0023593 Z M59.3060906,32.4481657 C60.1448656,33.2866865 60.1448656,34.6588116 59.3060906,35.5229963 C58.8997891,35.9292978 58.3153655,36.1582394 57.7563516,36.1325755 L42.0023232,36.1325755 C41.4178996,36.1582394 40.8588857,35.9041421 40.4777398,35.446513 C40.096594,35.0653672 39.8933162,34.5571727 39.8679065,34.0235685 C39.8933162,33.6678324 39.9441357,33.3120963 40.0711843,32.982024 C40.1982329,32.6514435 40.376101,32.3211171 40.6047885,32.0162004 L53.3858792,14.9662761 L42.8154344,14.9662761 C41.6211774,14.9916859 40.6301982,14.0261164 40.6301982,12.8318594 L40.6301982,12.7810399 C40.6047885,12.222026 40.833476,11.6630121 41.2400315,11.2818663 C41.6719968,10.8753107 42.2310107,10.6720329 42.8154344,10.6974426 L57.7815072,10.6974426 C58.366185,10.6974426 58.9249448,10.9261301 59.3060906,11.3835052 C59.7129003,11.8408802 59.9161781,12.4507135 59.8653586,13.0605469 C59.8399489,13.3400538 59.7891295,13.6449705 59.6872365,13.9244775 C59.5601879,14.2293942 59.4079836,14.5089011 59.179042,14.7375886 L46.3219762,31.8891518 L57.7815072,31.8891518 C58.3153655,31.8385864 58.8743794,32.0416101 59.3060906,32.4481657 L59.3060906,32.4481657 Z M34.2015382,35.446513 C33.7695729,35.9041421 33.1597396,36.1582394 32.5244965,36.1325755 C31.9146631,36.1582394 31.3048298,35.9041421 30.8982742,35.446513 C30.4663089,35.0148018 30.2122117,34.4047144 30.2376214,33.7694713 L30.2376214,12.679401 C30.2122117,12.0695677 30.4663089,11.4597343 30.8982742,11.0023593 C31.3302395,10.5449843 31.9146631,10.3162968 32.5244965,10.3162968 C33.1597396,10.2908871 33.7695729,10.5449843 34.2015382,11.0023593 C34.6335035,11.4343246 34.862191,12.044158 34.862191,12.679401 L34.862191,33.794881 C34.8876007,34.4047144 34.6335035,35.0148018 34.2015382,35.446513 L34.2015382,35.446513 Z M16.872107,31.1268601 C18.0917737,30.314003 19.0573432,29.1957211 19.6671766,27.8490058 C20.3532391,26.4006516 20.6835655,24.8252487 20.6581558,23.2498459 C20.6835655,21.6744431 20.3278294,20.0990402 19.6671766,18.6760957 C19.0573432,17.3547901 18.066364,16.262172 16.872107,15.4490609 C15.67785,14.6613595 14.2549055,14.2548039 12.831961,14.2802136 C11.3836068,14.2548039 9.96066231,14.6613595 8.74099559,15.4490609 C7.52132888,16.2367623 6.5557594,17.3293804 5.94592604,18.650686 C5.25986352,20.0990402 4.92953712,21.6744431 4.95494684,23.2498459 C4.92953712,24.8506584 5.25986352,26.4260613 5.94592604,27.8744155 C6.58116912,29.1957211 7.5467386,30.314003 8.74099559,31.1268601 C9.96066231,31.9145615 11.3836068,32.3467809 12.831961,32.3211171 C14.2549055,32.3467809 15.67785,31.9399712 16.872107,31.1268601 L16.872107,31.1268601 Z M19.3622599,11.7138316 C21.1663502,12.8826788 22.6401142,14.5089011 23.5802739,16.4400401 C24.6220726,18.5490471 25.1556768,20.9121514 25.1048573,23.2752556 C25.130267,25.6637696 24.6220726,28.0014641 23.5802739,30.1612906 C22.6401142,32.1178393 21.19176,33.7694713 19.3622599,34.9383186 C17.608989,36.0563464 15.5508014,36.6664338 13.4672041,36.64077 C11.8155721,36.64077 10.2147595,36.2596242 8.74099559,35.5229963 C7.36887054,34.8620894 6.17461355,33.8965199 5.18363435,32.7530824 L5.18363435,34.1760269 C5.20904407,34.7858602 4.95494684,35.3959477 4.52298155,35.8530686 C3.60823151,36.7424089 2.13446757,36.7678186 1.21971753,35.8784783 C0.787752238,35.4211033 0.533655006,34.8112699 0.559064729,34.2014366 L0.559064729,2.38846316 C0.533655006,1.75322008 0.762342515,1.16879645 1.19430781,0.71142143 C1.6262731,0.254046412 2.23610646,0.0253589037 2.87134954,0.0507686269 C3.50659262,0.0253589037 4.11642597,0.279456136 4.54839127,0.736831153 C4.98035656,1.16879645 5.20904407,1.7786298 5.20904407,2.41387288 L5.20904407,14.3056233 C6.09838438,13.0351372 7.26723165,12.0187482 8.61394698,11.2818663 C10.0623012,10.4433454 11.7139332,10.0113801 13.3909749,10.0113801 C15.499982,9.98597039 17.5835793,10.570394 19.3622599,11.7138316 L19.3622599,11.7138316 Z" id="Fill-48" fill="#19AEE1"></path>
                        </g>
                    </g>
                    <path d="M65,31.5278459 L71.4437965,27 L103.667806,27 L110,31.5005254 L103.667806,36 L71.4437965,36 L65,31.5278459 Z M71,25.5794411 L64.4910004,29.8879873 L61,32 L61,1 L71,10.6182609 L71,25.5794411 Z M104.174617,9.93433396 L71.8083794,10 L62,0 L104.174617,0 L109,5.05003127 L104.174617,9.93433396 Z M71,38.3879524 L71,53.4474389 L61,63 L61,32 L71,38.3879524 Z M71.7623148,54 L104.126412,54.0438322 L109,58.9989564 L104.126412,64 L62,64 L71.7623148,54 Z M114.908638,31.9347597 L115,31.9905377 L114.908638,32.0463156 L114.908638,53.3425403 L110.025955,58 L105,53.2240121 L105,38.4020151 L111.445183,34.1359971 L114.82039,31.9905377 L111.445183,29.8440822 L105,25.5790603 L105,10.7082575 L110.001038,6 L114.908638,10.7082575 L114.908638,31.9347597 Z" id="Combined-Shape" fill="#17AEE2" fill-rule="nonzero"></path>
                </g>
            </g>
        </g>
    </g>
</svg>